G04 #@! TF.GenerationSoftware,KiCad,Pcbnew,9.0.5*
G04 #@! TF.CreationDate,2025-11-06T14:44:22-03:00*
G04 #@! TF.ProjectId,levitador_magnetico,6c657669-7461-4646-9f72-5f6d61676e65,rev?*
G04 #@! TF.SameCoordinates,Original*
G04 #@! TF.FileFunction,Copper,L2,Bot*
G04 #@! TF.FilePolarity,Positive*
%FSLAX46Y46*%
G04 Gerber Fmt 4.6, Leading zero omitted, Abs format (unit mm)*
G04 Created by KiCad (PCBNEW 9.0.5) date 2025-11-06 14:44:22*
%MOMM*%
%LPD*%
G01*
G04 APERTURE LIST*
G04 Aperture macros list*
%AMRoundRect*
0 Rectangle with rounded corners*
0 $1 Rounding radius*
0 $2 $3 $4 $5 $6 $7 $8 $9 X,Y pos of 4 corners*
0 Add a 4 corners polygon primitive as box body*
4,1,4,$2,$3,$4,$5,$6,$7,$8,$9,$2,$3,0*
0 Add four circle primitives for the rounded corners*
1,1,$1+$1,$2,$3*
1,1,$1+$1,$4,$5*
1,1,$1+$1,$6,$7*
1,1,$1+$1,$8,$9*
0 Add four rect primitives between the rounded corners*
20,1,$1+$1,$2,$3,$4,$5,0*
20,1,$1+$1,$4,$5,$6,$7,0*
20,1,$1+$1,$6,$7,$8,$9,0*
20,1,$1+$1,$8,$9,$2,$3,0*%
G04 Aperture macros list end*
G04 #@! TA.AperFunction,ComponentPad*
%ADD10R,1.050000X1.500000*%
G04 #@! TD*
G04 #@! TA.AperFunction,ComponentPad*
%ADD11O,1.050000X1.500000*%
G04 #@! TD*
G04 #@! TA.AperFunction,ComponentPad*
%ADD12RoundRect,0.249999X0.850001X0.850001X-0.850001X0.850001X-0.850001X-0.850001X0.850001X-0.850001X0*%
G04 #@! TD*
G04 #@! TA.AperFunction,ComponentPad*
%ADD13C,2.200000*%
G04 #@! TD*
G04 #@! TA.AperFunction,ComponentPad*
%ADD14R,1.500000X1.050000*%
G04 #@! TD*
G04 #@! TA.AperFunction,ComponentPad*
%ADD15O,1.500000X1.050000*%
G04 #@! TD*
G04 #@! TA.AperFunction,ComponentPad*
%ADD16RoundRect,0.400000X-0.900000X-0.400000X0.900000X-0.400000X0.900000X0.400000X-0.900000X0.400000X0*%
G04 #@! TD*
G04 #@! TA.AperFunction,ComponentPad*
%ADD17RoundRect,0.400050X-0.899950X-0.400050X0.899950X-0.400050X0.899950X0.400050X-0.899950X0.400050X0*%
G04 #@! TD*
G04 #@! TA.AperFunction,ComponentPad*
%ADD18RoundRect,0.400000X-0.400000X-0.900000X0.400000X-0.900000X0.400000X0.900000X-0.400000X0.900000X0*%
G04 #@! TD*
G04 #@! TA.AperFunction,ComponentPad*
%ADD19RoundRect,0.393700X-0.393700X-0.906300X0.393700X-0.906300X0.393700X0.906300X-0.393700X0.906300X0*%
G04 #@! TD*
G04 #@! TA.AperFunction,ComponentPad*
%ADD20R,1.500000X1.500000*%
G04 #@! TD*
G04 #@! TA.AperFunction,ComponentPad*
%ADD21C,1.500000*%
G04 #@! TD*
G04 #@! TA.AperFunction,ComponentPad*
%ADD22C,1.600000*%
G04 #@! TD*
G04 #@! TA.AperFunction,ComponentPad*
%ADD23R,1.905000X2.000000*%
G04 #@! TD*
G04 #@! TA.AperFunction,ComponentPad*
%ADD24O,1.905000X2.000000*%
G04 #@! TD*
G04 #@! TA.AperFunction,ComponentPad*
%ADD25R,3.000000X3.000000*%
G04 #@! TD*
G04 #@! TA.AperFunction,ComponentPad*
%ADD26C,3.000000*%
G04 #@! TD*
G04 #@! TA.AperFunction,Conductor*
%ADD27C,0.800000*%
G04 #@! TD*
G04 #@! TA.AperFunction,Conductor*
%ADD28C,1.000000*%
G04 #@! TD*
G04 APERTURE END LIST*
D10*
X156690000Y-91000000D03*
D11*
X158960000Y-91000000D03*
X161230000Y-91000000D03*
D12*
X169080000Y-103000000D03*
D13*
X158920000Y-103000000D03*
D14*
X175730000Y-80000000D03*
D15*
X175730000Y-82270000D03*
X175730000Y-84540000D03*
D16*
X150675000Y-77705000D03*
X150675000Y-80245000D03*
X150675000Y-82785000D03*
X150675000Y-85325000D03*
X150675000Y-87865000D03*
D17*
X150675000Y-90405000D03*
X150675000Y-92945000D03*
X150675000Y-95485000D03*
X150675000Y-98025000D03*
D18*
X147535000Y-98835000D03*
D19*
X144995000Y-98835000D03*
X142455000Y-98835000D03*
X139915000Y-98835000D03*
X137375000Y-98835000D03*
D17*
X134235000Y-98025000D03*
X134235000Y-95485000D03*
X134235000Y-92945000D03*
X134235000Y-90405000D03*
X134235000Y-77705000D03*
X134235000Y-80245000D03*
X134235000Y-82785000D03*
X134235000Y-87865000D03*
X134235000Y-85325000D03*
D20*
X127640000Y-83460000D03*
D21*
X127640000Y-86000000D03*
X127640000Y-88540000D03*
D22*
X158190000Y-98000000D03*
X165810000Y-98000000D03*
X158730000Y-85810000D03*
X158730000Y-78190000D03*
X169730000Y-89380000D03*
X169730000Y-97000000D03*
D23*
X174650000Y-98000000D03*
D24*
X178190000Y-98000000D03*
X181730000Y-98000000D03*
D25*
X126000000Y-103000000D03*
D26*
X126000000Y-97920000D03*
D22*
X169730000Y-85810000D03*
X169730000Y-78190000D03*
X163730000Y-86000000D03*
X163730000Y-78380000D03*
D10*
X178270000Y-89000000D03*
D11*
X176000000Y-89000000D03*
X173730000Y-89000000D03*
D27*
X170080000Y-104000000D02*
X169080000Y-103000000D01*
X185000000Y-99730000D02*
X180730000Y-104000000D01*
X180730000Y-104000000D02*
X170080000Y-104000000D01*
X185000000Y-85270000D02*
X185000000Y-99730000D01*
X175730000Y-80000000D02*
X179730000Y-80000000D01*
X179730000Y-80000000D02*
X185000000Y-85270000D01*
X181000000Y-91730000D02*
X178270000Y-89000000D01*
X181000000Y-94000000D02*
X181000000Y-91730000D01*
X158960000Y-86040000D02*
X158730000Y-85810000D01*
X158960000Y-91000000D02*
X158960000Y-86040000D01*
X156730000Y-83000000D02*
X160730000Y-83000000D01*
X155000000Y-90000000D02*
X155000000Y-84730000D01*
X156000000Y-91000000D02*
X155000000Y-90000000D01*
X155000000Y-84730000D02*
X156730000Y-83000000D01*
X156690000Y-91000000D02*
X156000000Y-91000000D01*
X160730000Y-83000000D02*
X163730000Y-86000000D01*
X162230000Y-92770000D02*
X162230000Y-92000000D01*
X161000000Y-94000000D02*
X162230000Y-92770000D01*
X158230000Y-94000000D02*
X161000000Y-94000000D01*
X173730000Y-85270000D02*
X174460000Y-84540000D01*
X173730000Y-89000000D02*
X173730000Y-85270000D01*
X170110000Y-89000000D02*
X169730000Y-89380000D01*
X173730000Y-89000000D02*
X170110000Y-89000000D01*
X174730000Y-94000000D02*
X181000000Y-94000000D01*
X172730000Y-92000000D02*
X174730000Y-94000000D01*
X162230000Y-92000000D02*
X172730000Y-92000000D01*
X161230000Y-91000000D02*
X162230000Y-92000000D01*
X174460000Y-84540000D02*
X175730000Y-84540000D01*
X178000000Y-82810000D02*
X177460000Y-82270000D01*
X178000000Y-86000000D02*
X178000000Y-82810000D01*
X176000000Y-88000000D02*
X178000000Y-86000000D01*
X176000000Y-89000000D02*
X176000000Y-88000000D01*
D28*
X126000000Y-103000000D02*
X128000000Y-105000000D01*
X154000000Y-105000000D02*
X154000000Y-106000000D01*
X128000000Y-105000000D02*
X154000000Y-105000000D01*
D27*
X126000000Y-91000000D02*
X126000000Y-97920000D01*
X125000000Y-90000000D02*
X126000000Y-91000000D01*
X131000000Y-102000000D02*
X126920000Y-97920000D01*
X151000000Y-102000000D02*
X131000000Y-102000000D01*
X151000000Y-102000000D02*
X154000000Y-99000000D01*
X126920000Y-97920000D02*
X126000000Y-97920000D01*
D28*
X172730000Y-101000000D02*
X177730000Y-101000000D01*
D27*
X163920000Y-98000000D02*
X165810000Y-98000000D01*
D28*
X178190000Y-100540000D02*
X178190000Y-98000000D01*
D27*
X158920000Y-103000000D02*
X163920000Y-98000000D01*
D28*
X171730000Y-100000000D02*
X172730000Y-101000000D01*
X167730000Y-100000000D02*
X171730000Y-100000000D01*
X165730000Y-98000000D02*
X167730000Y-100000000D01*
X177730000Y-101000000D02*
X178190000Y-100540000D01*
D27*
X134835000Y-82785000D02*
X128315000Y-82785000D01*
X128315000Y-82785000D02*
X127640000Y-83460000D01*
X181730000Y-94730000D02*
X181000000Y-94000000D01*
X127640000Y-86000000D02*
X126000000Y-86000000D01*
X134510000Y-85000000D02*
X134835000Y-85325000D01*
X127640000Y-86000000D02*
X130000000Y-86000000D01*
X125000000Y-87000000D02*
X125000000Y-90000000D01*
X126000000Y-86000000D02*
X125000000Y-87000000D01*
X154000000Y-94000000D02*
X158230000Y-94000000D01*
X154000000Y-99000000D02*
X154000000Y-94000000D01*
X130000000Y-86000000D02*
X131000000Y-85000000D01*
X131000000Y-85000000D02*
X134510000Y-85000000D01*
X181730000Y-98000000D02*
X181730000Y-94730000D01*
D28*
X158110000Y-98000000D02*
X158000000Y-98000000D01*
X154000000Y-106000000D02*
X164810000Y-106000000D01*
X167810000Y-103000000D02*
X169080000Y-103000000D01*
D27*
X169730000Y-78190000D02*
X173920000Y-78190000D01*
X173920000Y-78190000D02*
X175730000Y-80000000D01*
D28*
X158000000Y-98000000D02*
X154000000Y-102000000D01*
X154000000Y-102000000D02*
X154000000Y-105000000D01*
X164810000Y-106000000D02*
X167810000Y-103000000D01*
D27*
X127640000Y-88540000D02*
X132045000Y-92945000D01*
X132045000Y-92945000D02*
X134835000Y-92945000D01*
X175730000Y-82270000D02*
X167620000Y-82270000D01*
X167620000Y-82270000D02*
X163730000Y-78380000D01*
X177460000Y-82270000D02*
X175730000Y-82270000D01*
X169730000Y-97000000D02*
X173650000Y-97000000D01*
X173650000Y-97000000D02*
X174650000Y-98000000D01*
X150075000Y-77705000D02*
X155515000Y-77705000D01*
X156000000Y-78190000D02*
X155515000Y-77705000D01*
X158730000Y-78190000D02*
X156000000Y-78190000D01*
X163730000Y-86000000D02*
X169540000Y-86000000D01*
X169540000Y-86000000D02*
X169730000Y-85810000D01*
M02*
